<svg width="89" height="57" viewBox="0 0 89 57" fill="none" xmlns="http://www.w3.org/2000/svg">
<path d="M44.5 0C69.0767 0 89 17.5 89 24L88.9854 24.3125C88.3764 31.0424 68.6928 48 44.5 48V42C55.3975 42 65.4108 38.0999 72.7168 33.3936C76.3626 31.045 79.1766 28.5952 81.002 26.5244C81.9173 25.4859 82.4949 24.6441 82.8135 24.0527C82.823 24.035 82.831 24.0168 82.8398 24C82.831 23.9832 82.823 23.965 82.8135 23.9473C82.4949 23.3559 81.9173 22.5141 81.002 21.4756C79.1766 19.4048 76.3626 16.955 72.7168 14.6064C65.4108 9.90012 55.3975 6 44.5 6C33.6427 6 23.64 9.99803 16.3105 14.7764C12.6562 17.1588 9.82275 19.635 7.97949 21.707C7.13669 22.6545 6.57681 23.4328 6.24121 24C6.57682 24.5672 7.1367 25.3456 7.97949 26.293C9.82275 28.365 12.6563 30.8413 16.3105 33.2236C23.64 38.002 33.6427 42 44.5 42V48C19.9233 48 5.43215e-05 30 1.11186e-10 24C-5.43213e-05 18 19.9233 1.10607e-06 44.5 0Z" fill="#D9D9D9"/>
<path d="M56.9999 24.5C56.9999 31.4036 51.4035 37 44.4999 37C37.5964 37 31.9999 31.4036 31.9999 24.5C31.9999 17.5964 37.5964 12 44.4999 12C51.4035 12 56.9999 17.5964 56.9999 24.5Z" fill="#D9D9D9"/>
<path d="M89 24L88.9854 24.3125C88.3764 31.0424 68.6928 48 44.5 48C19.9233 48 5.43214e-05 30 0 24H6.24121C6.57682 24.5672 7.1367 25.3456 7.97949 26.293C9.82275 28.365 12.6563 30.8413 16.3105 33.2236C23.64 38.002 33.6427 42 44.5 42C55.3975 42 65.4108 38.0999 72.7168 33.3936C76.3626 31.045 79.1766 28.5952 81.002 26.5244C81.9173 25.4859 82.4949 24.6441 82.8135 24.0527C82.823 24.035 82.831 24.0168 82.8398 24H89Z" fill="#D9D9D9"/>
<path d="M6.36396 40.121C5.19239 41.2926 3.29289 41.2926 2.12132 40.121C0.949747 38.9495 0.949747 37.05 2.12132 35.8784L6.87841 31.1213C8.04998 29.9497 9.94948 29.9497 11.121 31.1213C12.2926 32.2929 12.2926 34.1924 11.121 35.364L6.36396 40.121Z" fill="#D9D9D9"/>
<path d="M81.8782 40.121C83.0497 41.2926 84.9492 41.2926 86.1208 40.121C87.2924 38.9495 87.2924 37.05 86.1208 35.8784L81.3637 31.1213C80.1921 29.9497 78.2926 29.9497 77.1211 31.1213C75.9495 32.2929 75.9495 34.1924 77.1211 35.364L81.8782 40.121Z" fill="#D9D9D9"/>
<path d="M67.4235 51.4243C68.2519 52.8592 70.0867 53.3508 71.5215 52.5224C72.9564 51.694 73.448 49.8592 72.6196 48.4243L69.2558 42.5981C68.4274 41.1632 66.5926 40.6716 65.1578 41.5C63.7229 42.3285 63.2313 44.1632 64.0597 45.5981L67.4235 51.4243Z" fill="#D9D9D9"/>
<path d="M21.6959 51.4243C20.8675 52.8592 19.0327 53.3508 17.5978 52.5224C16.163 51.694 15.6713 49.8592 16.4998 48.4243L19.8635 42.5981C20.692 41.1632 22.5267 40.6716 23.9616 41.5C25.3965 42.3285 25.8881 44.1632 25.0597 45.5981L21.6959 51.4243Z" fill="#D9D9D9"/>
<path d="M41.5597 47.2725C41.5597 45.6156 42.9028 44.2725 44.5597 44.2725C46.2165 44.2725 47.5597 45.6156 47.5597 47.2725V54C47.5597 55.6569 46.2165 57 44.5597 57C42.9028 57 41.5597 55.6569 41.5597 54V47.2725Z" fill="#D9D9D9"/>
</svg>
